{"title":"The Last Horror Film *1982* [DVDRip.XviD-miguel] [ENG]","uid":6294887,"size":785327356,"categoryP":"video","categoryS":"movies","magnet":"?xt=urn:btih:ae2525c4bc9f3d73244ee81888ee07633060b999&amp;dn=The+Last+Horror+Film+%2A1982%2A+%5BDVDRip.XviD-miguel%5D+%5BENG%5D&amp;tr=udp%3A%2F%2Ftracker.openbittorrent.com%3A80&amp;tr=udp%3A%2F%2Fopen.demonii.com%3A1337&amp;tr=udp%3A%2F%2Ftracker.coppersurfer.tk%3A6969&amp;tr=udp%3A%2F%2Fexodus.desync.com%3A6969","seeders":1,"leechers":1,"uploader":"miguel1983","files":-1,"time":1301953956,"description":" &lt;a href=&quot;http://img843.imageshack.us/img843/3353/thelasthorrorfilm1982.jpg&quot; rel=&quot;nofollow&quot; target=&quot;_NEW&quot;&gt;http://img843.imageshack.us/img843/3353/thelasthorrorfilm1982.jpg&lt;/a&gt;\n\nCountry.......: USA\nGenre.........: Horror\nDate release..: 17.06.1982 [World]\nDirector......: David Winters\nWriters.......: Judd Hamilton, Tom Klassen\nDuration......: 87 min.\nMore..........: http://www.imdb.com/title/tt0087592\nTrailer.......:\n\nPilot :\nVinny New York taxi driver haunted by a beautiful actress. He goes for it to Cannes, where she participates in the International Film Festival. At the same time, he starts a series of murders, they begin to die looking actress. (Madman)\n\nCats :\nCaroline Munro \t... \tJana Bates\nJoe Spinell \t... \tVinny Durand\nJudd Hamilton \t... \tAlan Cunningham\nDevin Goldenberg \t... \tMarty Bernstein\nDavid Winters \t... \tStanley Kline\nSusanne Benton \t... \tSusan Archer (as Stanley Susanne Benton)\nFilomena Spagnuolo \t... \tVinny's Mother (as Mary Spinell)\nGlenn Jacobson \t... \tBret Bates\nJ Len Winters \t... \tGirl In Jaccuzi / Beach Girl Teaser\nSharon Hughes \t... \tStripper\nSean Casey \t... \tJonathan\nDon Talley \t... \tCowboy\nJohn Kelly \t... \tMan In Theatre\nSimone Overman \t... \tWoman #1 In Theatre\nMalgosia Casey \t... \tWoman #2 In Theatre \n\nData Technical :\n!!! SAMPLE !!!\nAudio.....: English\nSubtitles.: None\nFormat                           : AVI\nFormat/Info                      : Audio Video Interleave\nFile size                        : 746 MiB\nDuration                         : 1h 27mn\nOverall bit rate                 : 1 197 Kbps\nWriting application              : VirtualDubMod 1.5.4.1 (build 2178/release)\nWriting library                  : VirtualDubMod build 2178/release\nVideo\nID                               : 0\nFormat                           : MPEG-4 Visual\nFormat profile                   : Advanced Simple@L5\nFormat settings, BVOP            : Yes\nFormat settings, QPel            : No\nFormat settings, GMC             : No warppoints\nFormat settings, Matrix          : Custom\nCodec ID                         : XVID\nCodec ID/Hint                    : XviD\nDuration                         : 1h 27mn\nBit rate                         : 966 Kbps\nWidth                            : 640 pixels\nHeight                           : 480 pixels\nDisplay aspect ratio             : 4:3\nFrame rate                       : 25.000 fps\nColor space                      : YUV\nChroma subsampling               : 4:2:0\nBit depth                        : 8 bits\nScan type                        : Progressive\nBits/(Pixel*Frame)               : 0.126\nStream size                      : 602 MiB (81%)\nWriting library                  : XviD 1.2.0SMP\nAudio\nID                               : 1\nFormat                           : AC-3\nFormat/Info                      : Audio Coding 3\nMode extension                   : CM (complete main)\nCodec ID                         : 2000\nDuration                         : 1h 27mn\nBit rate mode                    : Constant\nBit rate                         : 224 Kbps\nChannel(s)                       : 2 channels\nChannel positions                : Front: L R\nSampling rate                    : 48.0 KHz\nStream size                      : 140 MiB (19%)\nAlignment                        : Aligned on interleaves\nInterleave, duration             : 96 ms (2.40 video frames)\nInterleave, preload duration     : 96 ms\n\nScreen : &lt;a href=&quot;\nhttp://img52.imageshack.us/img52/5341/thelasthorrorfilm1982s4.jpg&quot; rel=&quot;nofollow&quot; target=&quot;_NEW&quot;&gt;\nhttp://img52.imageshack.us/img52/5341/thelasthorrorfilm1982s4.jpg&lt;/a&gt; &lt;a href=&quot;\nhttp://img715.imageshack.us/img715/8715/thelasthorrorfilm1982s1.jpg&quot; rel=&quot;nofollow&quot; target=&quot;_NEW&quot;&gt;\nhttp://img715.imageshack.us/img715/8715/thelasthorrorfilm1982s1.jpg&lt;/a&gt; &lt;a href=&quot;\nhttp://img13.imageshack.us/img13/8633/thelasthorrorfilm1982s2.jpg&quot; rel=&quot;nofollow&quot; target=&quot;_NEW&quot;&gt;\nhttp://img13.imageshack.us/img13/8633/thelasthorrorfilm1982s2.jpg&lt;/a&gt; &lt;a href=&quot;\nhttp://img692.imageshack.us/img692/6522/thelasthorrorfilm1982s3.jpg&quot; rel=&quot;nofollow&quot; target=&quot;_NEW&quot;&gt;\nhttp://img692.imageshack.us/img692/6522/thelasthorrorfilm1982s3.jpg&lt;/a&gt;","torrent":{"xt":"urn:btih:ae2525c4bc9f3d73244ee81888ee07633060b999","amp;dn":"The+Last+Horror+Film+%2A1982%2A+%5BDVDRip.XviD-miguel%5D+%5BENG%5D","amp;tr":["udp%3A%2F%2Ftracker.openbittorrent.com%3A80","udp%3A%2F%2Fopen.demonii.com%3A1337","udp%3A%2F%2Ftracker.coppersurfer.tk%3A6969","udp%3A%2F%2Fexodus.desync.com%3A6969"],"infoHash":"ae2525c4bc9f3d73244ee81888ee07633060b999","infoHashBuffer":{"type":"Buffer","data":[174,37,37,196,188,159,61,115,36,78,232,24,136,238,7,99,48,96,185,153]},"announce":[],"urlList":[]}}